# xmcd
#
# Track frame offsets:
#	150
#	19283
#	35076
#	52389
#	69471
#	84104
#	100322
#	113083
#	126952
#	145379
#	158650
#	172879
#	187909
#	200541
#	215127
#
# Disc length: 3034 seconds
#
# Revision: 1
# Processed by: cddbd v1.5.2PL0 Copyright (c) Steve Scherf et al.
# Submitted via: audiograbber 1.83.01
#
DISCID=d90bd80f
DTITLE=Luan Santana - Os maiores sucessos Vol 1
DYEAR=2013
DGENRE=Sertanejo
TTITLE0=Escreve aí
TTITLE1=Eu não merecia isso
TTITLE2=Vou voar
TTITLE3=as lembranças vão na mala
TTITLE4=um beijo
TTITLE5=Amar não é pecado
TTITLE6=Cê topa
TTITLE7=um beijo
TTITLE8=Super amor
TTITLE9=Sogrão caprichou
TTITLE10=Meteoro
TTITLE11=Incondicional
TTITLE12=Nega
TTITLE13=Te vivo
TTITLE14=Jogando verde
EXTD=
EXTT0=
EXTT1=
EXTT2=
EXTT3=
EXTT4=
EXTT5=
EXTT6=
EXTT7=
EXTT8=
EXTT9=
EXTT10=
EXTT11=
EXTT12=
EXTT13=
EXTT14=
PLAYORDER=
